<?xml version="1.0" encoding="UTF-8"?>
<svg xmlns="http://www.w3.org/2000/svg" xmlns:xlink="http://www.w3.org/1999/xlink" width="25px" height="25px" viewBox="0 0 25 25" version="1.1">
<g id="surface1">
<path style=" stroke:none;fill-rule:nonzero;fill:rgb(100%,100%,100%);fill-opacity:1;" d="M 12.453125 1.984375 C 12.429688 1.988281 12.410156 1.996094 12.390625 2 C 12.160156 2.054688 11.992188 2.261719 12 2.496094 L 12 5.5 C 12 5.679688 12.089844 5.847656 12.25 5.9375 C 12.40625 6.027344 12.59375 6.027344 12.75 5.9375 C 12.910156 5.847656 13 5.679688 13 5.5 L 13 2.496094 C 13.007812 2.355469 12.945312 2.21875 12.84375 2.121094 C 12.738281 2.019531 12.59375 1.972656 12.453125 1.984375 Z M 5.328125 4.925781 C 5.140625 4.953125 4.988281 5.089844 4.9375 5.273438 C 4.886719 5.457031 4.9375 5.652344 5.078125 5.78125 L 7.199219 7.90625 C 7.324219 8.054688 7.515625 8.125 7.707031 8.078125 C 7.890625 8.035156 8.035156 7.890625 8.078125 7.707031 C 8.125 7.515625 8.054688 7.324219 7.90625 7.199219 L 5.78125 5.078125 C 5.675781 4.96875 5.523438 4.910156 5.375 4.925781 C 5.359375 4.925781 5.34375 4.925781 5.328125 4.925781 Z M 19.515625 4.925781 C 19.402344 4.9375 19.292969 4.992188 19.21875 5.078125 L 17.09375 7.199219 C 16.945312 7.324219 16.875 7.515625 16.921875 7.707031 C 16.964844 7.890625 17.109375 8.035156 17.292969 8.078125 C 17.484375 8.125 17.675781 8.054688 17.800781 7.90625 L 19.921875 5.78125 C 20.074219 5.632812 20.125 5.398438 20.03125 5.203125 C 19.9375 5.007812 19.730469 4.894531 19.515625 4.925781 Z M 12.453125 7.5 C 12.4375 7.503906 12.421875 7.511719 12.40625 7.515625 C 12.375 7.515625 12.347656 7.523438 12.3125 7.53125 C 12.308594 7.539062 12.300781 7.542969 12.296875 7.546875 C 9.640625 7.660156 7.5 9.820312 7.5 12.5 C 7.5 15.253906 9.746094 17.5 12.5 17.5 C 15.253906 17.5 17.5 15.253906 17.5 12.5 C 17.5 9.828125 15.375 7.675781 12.738281 7.546875 C 12.71875 7.546875 12.703125 7.53125 12.6875 7.53125 C 12.640625 7.511719 12.585938 7.5 12.53125 7.5 C 12.523438 7.5 12.507812 7.5 12.5 7.5 C 12.484375 7.5 12.46875 7.5 12.453125 7.5 Z M 12.46875 8.5 C 12.476562 8.5 12.492188 8.5 12.5 8.5 C 12.515625 8.5 12.53125 8.5 12.546875 8.5 C 14.734375 8.523438 16.5 10.308594 16.5 12.5 C 16.5 14.710938 14.710938 16.5 12.5 16.5 C 10.292969 16.5 8.5 14.710938 8.5 12.5 C 8.5 10.300781 10.273438 8.519531 12.46875 8.5 Z M 2.359375 12 C 2.085938 12.039062 1.890625 12.296875 1.925781 12.570312 C 1.96875 12.847656 2.222656 13.039062 2.496094 13 L 5.5 13 C 5.679688 13 5.847656 12.910156 5.9375 12.75 C 6.027344 12.59375 6.027344 12.40625 5.9375 12.25 C 5.847656 12.089844 5.679688 12 5.5 12 L 2.496094 12 C 2.484375 12 2.46875 12 2.453125 12 C 2.4375 12 2.421875 12 2.40625 12 C 2.390625 12 2.375 12 2.359375 12 Z M 19.363281 12 C 19.085938 12.039062 18.890625 12.296875 18.929688 12.570312 C 18.972656 12.847656 19.226562 13.039062 19.5 13 L 22.503906 13 C 22.683594 13 22.847656 12.910156 22.941406 12.75 C 23.027344 12.59375 23.027344 12.40625 22.941406 12.25 C 22.847656 12.089844 22.683594 12 22.503906 12 L 19.5 12 C 19.484375 12 19.46875 12 19.453125 12 C 19.4375 12 19.421875 12 19.40625 12 C 19.390625 12 19.378906 12 19.363281 12 Z M 7.5 16.9375 C 7.386719 16.949219 7.28125 17.011719 7.199219 17.09375 L 5.078125 19.21875 C 4.929688 19.339844 4.859375 19.535156 4.90625 19.71875 C 4.945312 19.90625 5.09375 20.054688 5.28125 20.09375 C 5.464844 20.140625 5.660156 20.070312 5.78125 19.921875 L 7.90625 17.800781 C 8.054688 17.652344 8.097656 17.433594 8.019531 17.242188 C 7.941406 17.054688 7.753906 16.9375 7.546875 16.9375 C 7.53125 16.9375 7.515625 16.9375 7.5 16.9375 Z M 17.339844 16.9375 C 17.15625 16.96875 17.003906 17.109375 16.949219 17.289062 C 16.902344 17.472656 16.953125 17.667969 17.09375 17.800781 L 19.21875 19.921875 C 19.339844 20.070312 19.535156 20.140625 19.71875 20.09375 C 19.90625 20.054688 20.054688 19.90625 20.09375 19.71875 C 20.140625 19.535156 20.070312 19.339844 19.921875 19.21875 L 17.800781 17.09375 C 17.703125 16.996094 17.574219 16.9375 17.4375 16.9375 C 17.425781 16.9375 17.410156 16.9375 17.390625 16.9375 C 17.375 16.9375 17.355469 16.9375 17.339844 16.9375 Z M 12.453125 18.988281 C 12.429688 18.988281 12.410156 18.996094 12.390625 19 C 12.160156 19.050781 11.992188 19.265625 12 19.5 L 12 22.503906 C 12 22.683594 12.089844 22.847656 12.25 22.941406 C 12.40625 23.027344 12.59375 23.027344 12.75 22.941406 C 12.910156 22.847656 13 22.683594 13 22.503906 L 13 19.5 C 13.007812 19.355469 12.945312 19.214844 12.84375 19.117188 C 12.738281 19.015625 12.59375 18.972656 12.453125 18.988281 Z M 12.453125 18.988281 "/>
</g>
</svg>
